<svg viewBox="0 0 330 200" xmlns="http://www.w3.org/2000/svg"><g><g><g><g><g><line x1="78.03125" y1="177" x2="73.03125" y2="177" style="visibility: inherit;" fill="rgb(0, 0, 0)" stroke="rgb(204, 204, 204)" stroke-width="1px"></line><line x1="78.03125" y1="159.3" x2="73.03125" y2="159.3" style="visibility: inherit;" fill="rgb(0, 0, 0)" stroke="rgb(204, 204, 204)" stroke-width="1px"></line><line x1="78.03125" y1="141.6" x2="73.03125" y2="141.6" style="visibility: inherit;" fill="rgb(0, 0, 0)" stroke="rgb(204, 204, 204)" stroke-width="1px"></line><line x1="78.03125" y1="123.9" x2="73.03125" y2="123.9" style="visibility: inherit;" fill="rgb(0, 0, 0)" stroke="rgb(204, 204, 204)" stroke-width="1px"></line><line x1="78.03125" y1="106.2" x2="73.03125" y2="106.2" style="visibility: inherit;" fill="rgb(0, 0, 0)" stroke="rgb(204, 204, 204)" stroke-width="1px"></line><line x1="78.03125" y1="88.5" x2="73.03125" y2="88.5" style="visibility: inherit;" fill="rgb(0, 0, 0)" stroke="rgb(204, 204, 204)" stroke-width="1px"></line><line x1="78.03125" y1="70.8" x2="73.03125" y2="70.8" style="visibility: inherit;" fill="rgb(0, 0, 0)" stroke="rgb(204, 204, 204)" stroke-width="1px"></line><line x1="78.03125" y1="53.10000000000001" x2="73.03125" y2="53.10000000000001" style="visibility: inherit;" fill="rgb(0, 0, 0)" stroke="rgb(204, 204, 204)" stroke-width="1px"></line><line x1="78.03125" y1="35.400000000000006" x2="73.03125" y2="35.400000000000006" style="visibility: inherit;" fill="rgb(0, 0, 0)" stroke="rgb(204, 204, 204)" stroke-width="1px"></line><line x1="78.03125" y1="17.69999999999999" x2="73.03125" y2="17.69999999999999" style="visibility: inherit;" fill="rgb(0, 0, 0)" stroke="rgb(204, 204, 204)" stroke-width="1px"></line><line x1="78.03125" y1="0" x2="73.03125" y2="0" style="visibility: inherit;" fill="rgb(0, 0, 0)" stroke="rgb(204, 204, 204)" stroke-width="1px"></line></g><g transform="translate(68.03125, 0)"><text x="0" y="177" dx="0em" dy="0.3em" style="text-anchor: end; visibility: hidden; font-family: &quot;Helvetica Neue&quot;, sans-serif; font-size: 12px; font-weight: 200;" fill="rgb(50, 49, 63)" stroke="none" stroke-width="1px">-1.8e+3</text><text x="0" y="159.3" dx="0em" dy="0.3em" style="text-anchor: end; visibility: inherit; font-family: &quot;Helvetica Neue&quot;, sans-serif; font-size: 12px; font-weight: 200;" fill="rgb(50, 49, 63)" stroke="none" stroke-width="1px">-1.6e+3</text><text x="0" y="141.6" dx="0em" dy="0.3em" style="text-anchor: end; visibility: hidden; font-family: &quot;Helvetica Neue&quot;, sans-serif; font-size: 12px; font-weight: 200;" fill="rgb(50, 49, 63)" stroke="none" stroke-width="1px">-1.4e+3</text><text x="0" y="123.9" dx="0em" dy="0.3em" style="text-anchor: end; visibility: inherit; font-family: &quot;Helvetica Neue&quot;, sans-serif; font-size: 12px; font-weight: 200;" fill="rgb(50, 49, 63)" stroke="none" stroke-width="1px">-1.2e+3</text><text x="0" y="106.2" dx="0em" dy="0.3em" style="text-anchor: end; visibility: hidden; font-family: &quot;Helvetica Neue&quot;, sans-serif; font-size: 12px; font-weight: 200;" fill="rgb(50, 49, 63)" stroke="none" stroke-width="1px">-1e+3</text><text x="0" y="88.5" dx="0em" dy="0.3em" style="text-anchor: end; visibility: inherit; font-family: &quot;Helvetica Neue&quot;, sans-serif; font-size: 12px; font-weight: 200;" fill="rgb(50, 49, 63)" stroke="none" stroke-width="1px">-800</text><text x="0" y="70.8" dx="0em" dy="0.3em" style="text-anchor: end; visibility: hidden; font-family: &quot;Helvetica Neue&quot;, sans-serif; font-size: 12px; font-weight: 200;" fill="rgb(50, 49, 63)" stroke="none" stroke-width="1px">-600</text><text x="0" y="53.10000000000001" dx="0em" dy="0.3em" style="text-anchor: end; visibility: inherit; font-family: &quot;Helvetica Neue&quot;, sans-serif; font-size: 12px; font-weight: 200;" fill="rgb(50, 49, 63)" stroke="none" stroke-width="1px">-400</text><text x="0" y="35.400000000000006" dx="0em" dy="0.3em" style="text-anchor: end; visibility: hidden; font-family: &quot;Helvetica Neue&quot;, sans-serif; font-size: 12px; font-weight: 200;" fill="rgb(50, 49, 63)" stroke="none" stroke-width="1px">-200</text><text x="0" y="17.69999999999999" dx="0em" dy="0.3em" style="text-anchor: end; visibility: inherit; font-family: &quot;Helvetica Neue&quot;, sans-serif; font-size: 12px; font-weight: 200;" fill="rgb(50, 49, 63)" stroke="none" stroke-width="1px">0</text><text x="0" y="0" dx="0em" dy="0.3em" style="text-anchor: end; visibility: hidden; font-family: &quot;Helvetica Neue&quot;, sans-serif; font-size: 12px; font-weight: 200;" fill="rgb(50, 49, 63)" stroke="none" stroke-width="1px">200</text></g><line x1="78.03125" y1="0" x2="78.03125" y2="177" fill="rgb(0, 0, 0)" stroke="rgb(204, 204, 204)" stroke-width="1px"></line></g></g><g transform="translate(78, 0)" clip-path="url(#clip_0)"><clipPath id="clip_0"><rect width="251" height="177"></rect></clipPath><g><g><g><line x1="0" y1="0" x2="0" y2="177" fill="rgb(0, 0, 0)" stroke="rgb(60, 60, 60)" stroke-width="1px" opacity="0.25"></line><line x1="27.996527777777775" y1="0" x2="27.996527777777775" y2="177" fill="rgb(0, 0, 0)" stroke="rgb(60, 60, 60)" stroke-width="1px" opacity="0.25"></line><line x1="55.99305555555555" y1="0" x2="55.99305555555555" y2="177" fill="rgb(0, 0, 0)" stroke="rgb(60, 60, 60)" stroke-width="1px" opacity="0.25"></line><line x1="83.98958333333333" y1="0" x2="83.98958333333333" y2="177" fill="rgb(0, 0, 0)" stroke="rgb(60, 60, 60)" stroke-width="1px" opacity="0.25"></line><line x1="111.9861111111111" y1="0" x2="111.9861111111111" y2="177" fill="rgb(0, 0, 0)" stroke="rgb(60, 60, 60)" stroke-width="1px" opacity="0.25"></line><line x1="139.98263888888889" y1="0" x2="139.98263888888889" y2="177" fill="rgb(0, 0, 0)" stroke="rgb(60, 60, 60)" stroke-width="1px" opacity="0.25"></line><line x1="167.97916666666666" y1="0" x2="167.97916666666666" y2="177" fill="rgb(0, 0, 0)" stroke="rgb(60, 60, 60)" stroke-width="1px" opacity="0.25"></line><line x1="195.97569444444446" y1="0" x2="195.97569444444446" y2="177" fill="rgb(0, 0, 0)" stroke="rgb(60, 60, 60)" stroke-width="1px" opacity="0.25"></line><line x1="223.9722222222222" y1="0" x2="223.9722222222222" y2="177" fill="rgb(0, 0, 0)" stroke="rgb(60, 60, 60)" stroke-width="1px" opacity="0.25"></line><line x1="251.96875" y1="0" x2="251.96875" y2="177" fill="rgb(0, 0, 0)" stroke="rgb(60, 60, 60)" stroke-width="1px" opacity="0.25"></line></g><g><line x1="0" y1="177" x2="251.96875" y2="177" fill="rgb(0, 0, 0)" stroke="rgb(60, 60, 60)" stroke-width="1px" opacity="0.25"></line><line x1="0" y1="159.3" x2="251.96875" y2="159.3" fill="rgb(0, 0, 0)" stroke="rgb(60, 60, 60)" stroke-width="1px" opacity="0.25"></line><line x1="0" y1="141.6" x2="251.96875" y2="141.6" fill="rgb(0, 0, 0)" stroke="rgb(60, 60, 60)" stroke-width="1px" opacity="0.25"></line><line x1="0" y1="123.9" x2="251.96875" y2="123.9" fill="rgb(0, 0, 0)" stroke="rgb(60, 60, 60)" stroke-width="1px" opacity="0.25"></line><line x1="0" y1="106.2" x2="251.96875" y2="106.2" fill="rgb(0, 0, 0)" stroke="rgb(60, 60, 60)" stroke-width="1px" opacity="0.25"></line><line x1="0" y1="88.5" x2="251.96875" y2="88.5" fill="rgb(0, 0, 0)" stroke="rgb(60, 60, 60)" stroke-width="1px" opacity="0.25"></line><line x1="0" y1="70.8" x2="251.96875" y2="70.8" fill="rgb(0, 0, 0)" stroke="rgb(60, 60, 60)" stroke-width="1px" opacity="0.25"></line><line x1="0" y1="53.10000000000001" x2="251.96875" y2="53.10000000000001" fill="rgb(0, 0, 0)" stroke="rgb(60, 60, 60)" stroke-width="1px" opacity="0.25"></line><line x1="0" y1="35.400000000000006" x2="251.96875" y2="35.400000000000006" fill="rgb(0, 0, 0)" stroke="rgb(60, 60, 60)" stroke-width="1px" opacity="0.25"></line><line x1="0" y1="17.69999999999999" x2="251.96875" y2="17.69999999999999" fill="rgb(0, 0, 0)" stroke="rgb(60, 60, 60)" stroke-width="1px" opacity="0.25"></line><line x1="0" y1="0" x2="251.96875" y2="0" fill="rgb(0, 0, 0)" stroke="rgb(60, 60, 60)" stroke-width="1px" opacity="0.25"></line></g></g></g><g><g><line x1="0" y1="17.69999999999999" x2="251.96875" y2="17.69999999999999" fill="rgb(0, 0, 0)" stroke="rgb(153, 153, 153)" stroke-width="1.5px"></line></g></g><g><g><line x1="27.996527777777775" y1="0" x2="27.996527777777775" y2="177" fill="rgb(0, 0, 0)" stroke="rgb(153, 153, 153)" stroke-width="1.5px"></line></g></g><g><g><g><g><g><path stroke="rgb(255, 112, 67)" stroke-width="2px" d="M27.996527777777775,122.65442083740234L28.55645833333333,104.7722244873047L29.11638888888889,117.42895495231782L29.67631944444444,106.97621198474658L30.23625,135.9560393107915L30.796180555555555,146.14007226960769L31.35611111111111,134.5907134534653L31.91604166666667,121.85169539770456L32.47597222222222,111.75380183273775L33.03590277777778,140.13857466093359L33.59583333333333,132.27565397190193L34.15576388888889,127.80548807450799L34.715694444444445,128.55589465629566L35.275625000000005,113.63866041897435L35.83555555555556,126.43494338907365L36.395486111111104,133.3531356758603L36.955416666666665,141.43606095170392L37.51534722222222,136.01081004566603L38.07527777777778,136.28057089815712L38.63520833333333,126.80050792007626L39.19513888888889,142.59377257041754L39.755069444444445,130.1032352968973L40.315,111.94981118176085L40.87493055555555,128.58532700908364L41.43486111111111,126.04025698732093L41.994791666666664,120.86434282416623L42.554722222222225,109.96349982323645L43.11465277777778,103.89254623904654L43.67458333333334,132.75358827981114L44.234513888888884,118.50120396744686L44.794444444444444,113.92094982468109L45.354375,137.073962557791L45.91430555555556,120.38026478683409L46.47423611111111,110.50670103305886L47.03416666666667,111.23908755137087L47.594097222222224,135.05719911438328L48.15402777777778,119.36633560687619L48.71395833333333,140.51136030494595L49.27388888888889,129.22191440000313L49.833819444444444,122.41683974418646L50.393750000000004,139.16454297127248L50.95368055555556,142.36638918762463L51.51361111111111,148.70655514526482L52.073541666666664,147.30201487402493L52.633472222222224,142.14261246391774L53.19340277777778,137.82891198491754L53.75333333333334,149.506100902325L54.31326388888889,148.1133883001528L54.873194444444444,148.24242370274965L55.433125,142.78050549113692L55.99305555555555,123.16573817007529L56.55298611111111,133.36347876633266L57.11291666666666,129.86440723049662L57.672847222222224,124.78581145255046L58.23277777777778,108.28852726458632L58.79270833333334,103.63971272105474L59.35263888888888,110.54853747150159L59.91256944444444,123.99867824462152L60.4725,108.89405893651775L61.03243055555556,118.76897584042676L61.59236111111111,112.52724588023243L62.15229166666667,105.0731806824362L62.71222222222222,101.25769633670778L63.27215277777778,101.86064233815748L63.83208333333334,112.72397204840235L64.39201388888888,116.16898022611173L64.95194444444444,107.80605703215141L65.511875,112.48715553276742L66.07180555555556,135.59137530208233L66.63173611111111,130.71351360898376L67.19166666666666,119.71021010630822L67.75159722222223,138.40044552179276L68.31152777777778,153.88998374373975L68.87145833333332,137.22466888393913L69.43138888888889,128.01085697001193L69.99131944444444,110.96387565661652L70.55125000000001,135.71169927092305L71.11118055555555,146.87712542192884L71.67111111111112,157.76450965257135L72.23104166666667,142.96252002494123L72.79097222222221,117.11393166828506L73.35090277777778,109.08353208446714L73.91083333333333,115.97921153583653L74.4707638888889,108.11895984386518L75.03069444444444,126.92484917292067L75.590625,135.63149007015866L76.15055555555556,117.28619825352098L76.71048611111111,109.07281432564776L77.27041666666666,98.88242618083785L77.83034722222222,122.22482411670583L78.39027777777778,111.57940028057038L78.95020833333334,125.00418032947505L79.51013888888889,120.62937892522407L80.07006944444444,109.94170298990008L80.63,104.2703691938424L81.18993055555556,96.1113939650359L81.7498611111111,115.80281047570122L82.30979166666667,114.51153635866292L82.86972222222222,125.59882271851806L83.42965277777779,123.90545439771239L83.98958333333333,115.67194295112745L84.54951388888888,128.20707719645773L85.10944444444445,121.78417034131213L85.669375,108.45991072529509L86.22930555555556,110.30965331994268L86.78923611111111,122.29334868141873L87.34916666666668,106.84048007066764L87.90909722222223,107.34400955118966L88.46902777777777,123.8656924982919L89.02895833333334,137.59755937104546L89.58888888888889,116.73180592292023L90.14881944444444,126.65824629789277L90.70875,141.59434121135286L91.26868055555556,124.51790670435076L91.82861111111112,113.09993091225891L92.38854166666665,112.73715476317567L92.94847222222222,112.5021607045851L93.50840277777777,127.7676012079073L94.06833333333334,121.69136580286937L94.62826388888888,120.85738796316696L95.18819444444445,106.52032442829078L95.748125,102.35299286254089L96.30805555555555,118.03263944311045L96.86798611111111,109.70217750131549L97.42791666666666,111.89312739922678L97.98784722222223,130.67266674715327L98.54777777777778,131.8338459223154L99.10770833333333,140.40502674284238L99.66763888888889,125.60718790849839L100.22756944444444,112.54658736668107L100.78750000000001,105.15772893368052L101.34743055555555,101.195732550638L101.90736111111111,119.43648516026562L102.46729166666667,124.90900073971406L103.02722222222222,112.50305680369172L103.58715277777777,108.79196281756658L104.14708333333333,102.79340660899699L104.7070138888889,117.79776584039821L105.26694444444445,110.20541061507876L105.826875,135.17204397646913L106.38680555555555,133.99943007240492L106.94673611111111,118.67217012840389L107.50666666666667,116.58663791688608L108.06659722222221,123.5100091417332L108.62652777777778,125.99452345378994L109.18645833333333,113.16110732178566L109.74638888888889,116.24835418799327L110.30631944444444,106.02374945127252L110.86625,116.56385152623227L111.42618055555556,135.36322365988L111.9861111111111,115.29967527258816L112.54604166666667,135.5859530151154L113.10597222222222,151.98279954344426L113.66590277777779,151.0673450580978L114.22583333333333,137.86275386103057L114.78576388888888,143.8926593722824L115.34569444444445,141.80472074543974L115.905625,119.20395991308416L116.46555555555555,132.2879019732411L117.0254861111111,131.84882914781187L117.58541666666667,117.01583528165588L118.14534722222223,108.87043016069275L118.70527777777777,103.78453742991174L119.26520833333333,100.97603540960719L119.82513888888889,110.57721863345964L120.38506944444445,103.89080760829843L120.945,100.6712002021861L121.50493055555556,95.29600144455382L122.06486111111111,121.26774520266981L122.62479166666667,117.46137485597689L123.18472222222222,113.03687247217988L123.74465277777777,120.38776152041731L124.30458333333334,111.12089651185977L124.8645138888889,114.24093356141272L125.42444444444445,131.77683352551952L125.984375,127.94856088191328L126.54430555555555,132.14505144614014L127.10423611111112,140.8172781333091L127.66416666666667,137.49353543467294L128.2240972222222,123.8936707603155L128.78402777777777,122.54213949232211L129.34395833333332,108.53855857332294L129.90388888888887,100.01223345942346L130.46381944444445,94.14508073727517L131.02375,95.37338019285339L131.58368055555556,105.94763397508703L132.1436111111111,99.32524445975926L132.70354166666667,100.08533566511336L133.26347222222222,98.07727036879457L133.82340277777777,96.50138802694082L134.38333333333333,106.36457795776606L134.94326388888888,102.0431542697768L135.50319444444446,118.45766284995204L136.063125,112.33049751465872L136.62305555555557,102.3703439677796L137.1829861111111,99.64995855351933L137.74291666666664,101.05358843777566L138.30284722222223,119.9638192003607L138.86277777777778,113.29083262129063L139.42270833333333,109.31241312257909L139.98263888888889,121.63594982667246L140.54256944444447,126.23651835791753L141.10250000000002,120.50634751377396L141.66243055555555,110.62547525631125L142.2223611111111,107.68152149411877L142.78229166666665,122.14043372166657L143.34222222222223,121.7457842320234L143.9021527777778,121.50187737515154L144.46208333333334,113.13867773124328L145.0220138888889,114.76040778620688L145.58194444444442,133.2645871277788L146.141875,141.33458692022197L146.70180555555555,149.9654800818207L147.2617361111111,124.04377205788148L147.82166666666666,144.31501572496325L148.38159722222224,132.99334056290763L148.9415277777778,118.76990917172898L149.50145833333335,124.988817622178L150.06138888888887,122.76063405475212L150.62131944444442,111.32227428050754L151.18125,112.52239921185922L151.74118055555556,106.34311269606084L152.3011111111111,98.78840732710917L152.86104166666667,124.70493602224207L153.42097222222222,108.74272997272023L153.9809027777778,106.55780745384698L154.54083333333332,120.34279977992539L155.10076388888888,123.57852544900993L155.66069444444443,114.52599433434737L156.220625,107.41855877101857L156.78055555555557,102.02799110977911L157.34048611111112,99.7965612063948L157.90041666666667,97.08357223409078L158.46034722222223,114.84689155822791L159.02027777777778,113.81328124841329L159.58020833333333,136.23664826564954L160.14013888888888,115.56535368106941L160.70006944444444,126.48299240883696L161.26,132.71176492772406L161.81993055555557,117.03974255038443L162.37986111111113,135.68066235151971L162.93979166666665,132.7063204822009L163.4997222222222,127.85924372975023L164.05965277777779,132.64572697515484L164.61958333333334,130.45376186868666L165.1795138888889,119.85210236046979L165.73944444444444,134.9836643947975L166.299375,134.45763784586288L166.85930555555558,125.59583014404116L167.4192361111111,114.1660768828114L167.97916666666666,125.86389417656184L168.5390972222222,122.98884199910117L169.09902777777776,107.87811655199977L169.65895833333335,98.21349604203971L170.2188888888889,93.89292653147383L170.77881944444445,90.54247515716555L171.33875,83.68074927886963L171.89868055555556,92.7000241400757L172.4586111111111,84.76227368814699L173.01854166666666,90.90012045068116L173.57847222222222,93.21162082997901L174.13840277777777,92.9042213993546L174.69833333333335,93.53578803980807L175.2582638888889,98.69703813150203L175.81819444444446,98.13978609911605L176.37812499999998,97.50354530448917L176.93805555555554,97.71329239265444L177.49798611111112,87.76023301615906L178.05791666666667,82.33036482190248L178.61784722222222,78.45676176423521L179.17777777777778,81.32021454145129L179.73770833333333,85.26925539723405L180.29763888888888,85.4501846714459L180.85756944444444,75.94406961024059L181.4175,66.3538331907049L181.97743055555554,73.63947817370027L182.53736111111112,72.47775268791159L183.09729166666668,59.08138926228307L183.65722222222223,46.83107950921308L184.21715277777778,39.46784066359669L184.7770833333333,34.96798002987191L185.3370138888889,32.56547717960527L185.89694444444444,31.032317687462864L186.456875,30.274538122243342L187.01680555555555,25.286574287835748L187.5767361111111,26.68505968348026L188.13666666666668,23.174996954249366L188.69659722222224,25.186374434451466L189.25652777777776,31.595671315944344L189.81645833333332,30.403167639420104L190.3763888888889,29.845159944919146L190.93631944444445,29.33480620102131L191.49625,33.363443492341304L192.05618055555556,31.51606047559278L192.6161111111111,30.060689221146674L193.1760416666667,78.14381587643801L193.73597222222222,58.28634702098L194.29590277777777,46.3010349185206L194.85583333333332,39.37725793689117L195.41576388888888,35.182903689441844L195.97569444444446,28.325476004682628L196.535625,28.329302187587416L197.09555555555556,32.60957332915402L197.65548611111112,39.50044462005101L198.21541666666667,35.162930562924146L198.77534722222222,36.609794617051364L199.33527777777778,37.361274975797244L199.89520833333333,33.57985568219462L200.45513888888888,36.12389948719763L201.01506944444446,33.29994795037524L201.57500000000002,31.12338895912893L202.13493055555554,34.73034519493538L202.6948611111111,40.11376423366045L203.25479166666665,35.443535333103966L203.81472222222223,32.5234546196622L204.37465277777778,30.989285045967222L204.93458333333334,25.70642139529332L205.4945138888889,30.61844398097483L206.05444444444444,29.778254820896905L206.614375,29.31883614754304L207.17430555555555,29.18180433439983L207.7342361111111,28.95201430535181L208.29416666666665,28.877025036763342L208.85409722222224,28.79376619088123L209.4140277777778,28.702920145436963L209.97395833333334,36.480653875592225L210.5338888888889,33.44880772605114L211.09381944444442,35.638986896983226L211.65375,32.79475007428613L212.21368055555556,31.142470947586816L212.7736111111111,30.069659326364558L213.33354166666666,29.78441139782069L213.89347222222221,29.480904257515675L214.4534027777778,29.187286948430312L215.01333333333335,29.159642509023996L215.57326388888887,33.243227247357765L216.13319444444443,35.3704811085465L216.693125,28.42765435860173L217.25305555555556,28.693152100024292L217.81298611111112,28.85423867822749L218.37291666666667,28.894336834866152L218.93284722222222,32.590130225919694L219.49277777777777,30.980028254570385L220.05270833333333,25.854351443518283L220.61263888888888,30.98803610414808L221.17256944444443,30.159223939100173L221.7325,25.380406542872947L222.29243055555557,26.52062570062614L222.85236111111112,27.317013211818534L223.41229166666668,23.491584654111875L223.9722222222222,21.193761992537503L224.53215277777778,24.240035897304722L225.09208333333333,25.946544598990727L225.6520138888889,27.151401638850018L226.21194444444444,27.856994785800225L226.771875,28.19938052016178L227.33180555555558,32.917348313317774L227.89173611111113,31.36578659419183L228.45166666666665,30.355845865511697L229.0115972222222,29.88160431190954L229.57152777777776,29.19784492204562" style="fill: none;" fill="none"></path></g></g></g></g><g opacity="0.2"><g><g><g><path stroke="rgb(255, 112, 67)" stroke-width="2px" d="M27.996527777777775,122.65442083740234L28.55645833333333,94.0429066772461L29.11638888888889,129.57941619873048L29.67631944444444,94.68378625488282L30.23625,173.79210186767577L30.796180555555555,160.22825610351563L31.35611111111111,118.07494555664063L31.91604166666667,103.27808477783204L32.47597222222222,96.86137023925781L33.03590277777778,182.28665423583985L33.59583333333333,120.55258905029297L34.15576388888889,121.12456567382813L34.715694444444445,129.67905432128907L35.275625000000005,91.29203347778319L35.83555555555556,145.6143262939453L36.395486111111104,143.72554486083985L36.955416666666665,153.5570284423828L37.51534722222222,127.87431115722656L38.07527777777778,136.68517108154296L38.63520833333333,112.58127996826171L39.19513888888889,166.2828034057617L39.755069444444445,111.36784039306642L40.315,84.72003341674805L40.87493055555555,153.53840368652342L41.43486111111111,122.2226700439453L41.994791666666664,113.10049365234374L42.554722222222225,93.61226321411134L43.11465277777778,94.78612518310547L43.67458333333334,176.04512475585938L44.234513888888884,97.12263537597657L44.794444444444444,107.05057012939453L45.354375,171.80347705078125L45.91430555555556,95.33972012329102L46.47423611111111,95.69635610961915L47.03416666666667,112.33766729736328L47.594097222222224,170.78436584472655L48.15402777777778,95.8300405883789L48.71395833333333,172.22889715576173L49.27388888888889,112.28774560546876L49.833819444444444,112.20922778320313L50.393750000000004,164.2860977783203L50.95368055555556,147.16915850830077L51.51361111111111,158.21680407714842L52.073541666666664,145.19520446777344L52.633472222222224,134.40350885009764L53.19340277777778,131.35836126708983L53.75333333333334,167.02188427734376L54.31326388888889,146.02431939697266L54.873194444444444,148.43597680664064L55.433125,134.58762817382814L55.99305555555555,93.74358718872071L56.55298611111111,148.66008966064453L57.11291666666666,124.6157999267578L57.672847222222224,117.16791778564453L58.23277777777778,83.54260098266602L58.79270833333334,96.66649090576172L59.35263888888888,120.91177459716796L59.91256944444444,144.1738894042969L60.4725,86.23712997436523L61.03243055555556,133.58135119628906L61.59236111111111,103.16465093994141L62.15229166666667,93.8920828857422L62.71222222222222,95.53446981811523L63.27215277777778,102.76506134033202L63.83208333333334,129.01896661376952L64.39201388888888,121.33649249267577L64.95194444444444,95.26167224121095L65.511875,119.5088032836914L66.07180555555556,170.2477049560547L66.63173611111111,123.39672106933594L67.19166666666666,103.20525485229491L67.75159722222223,166.43579864501953L68.31152777777778,177.12429107666014L68.87145833333332,112.22669659423829L69.43138888888889,114.1901390991211L69.99131944444444,85.39340368652344L70.55125000000001,172.8334346923828L71.11118055555555,163.6252646484375L71.67111111111112,174.09558599853517L72.23104166666667,120.7595355834961L72.79097222222221,78.34104913330079L73.35090277777778,97.03793270874024L73.91083333333333,126.32273071289063L74.4707638888889,96.3285823059082L75.03069444444444,155.1336831665039L75.590625,148.69145141601564L76.15055555555556,89.76826052856445L76.71048611111111,96.75273843383789L77.27041666666666,83.59684396362304L77.83034722222222,157.23842102050781L78.39027777777778,95.61126452636718L78.95020833333334,145.14135040283202L79.51013888888889,114.06717681884766L80.07006944444444,93.91018908691406L80.63,95.76336849975586L81.18993055555556,83.87293112182617L81.7498611111111,145.3399352416992L82.30979166666667,112.57462518310547L82.86972222222222,142.22975225830078L83.42965277777779,121.36540191650391L83.98958333333333,103.32167578125L84.54951388888888,147.00977856445311L85.10944444444445,112.14981005859376L85.669375,88.47352130126954L86.22930555555556,113.08426721191407L86.78923611111111,140.2688917236328L87.34916666666668,83.66117715454101L87.90909722222223,108.09930377197266L88.46902777777777,148.6482169189453L89.02895833333334,158.19535968017578L89.58888888888889,85.43317575073243L90.14881944444444,141.54790686035156L90.70875,163.99848358154298L91.26868055555556,98.90325494384766L91.82861111111112,95.97296722412109L92.38854166666665,112.19299053955078L92.94847222222222,112.14966961669923L93.50840277777777,150.66576196289063L94.06833333333334,112.5770126953125L94.62826388888888,119.60642120361328L95.18819444444445,85.01472912597657L95.748125,96.10199551391601L96.30805555555555,141.55210931396485L96.86798611111111,97.20648458862304L97.42791666666666,115.17955224609375L97.98784722222223,158.84197576904296L98.54777777777778,133.57561468505858L99.10770833333333,153.2617979736328L99.66763888888889,103.41042965698243L100.22756944444444,92.95568655395508L100.78750000000001,94.07444128417968L101.34743055555555,95.25273797607421L101.90736111111111,146.79761407470704L102.46729166666667,133.11777410888672L103.02722222222222,93.89414089965821L103.58715277777777,103.2253218383789L104.14708333333333,93.79557229614258L104.7070138888889,140.3043046875L105.26694444444445,98.8168777770996L105.826875,172.6219940185547L106.38680555555555,132.2405092163086L106.94673611111111,95.68128021240234L107.50666666666667,113.45833959960937L108.06659722222221,133.8950659790039L108.62652777777778,129.721294921875L109.18645833333333,93.9109831237793L109.74638888888889,120.87922448730468L110.30631944444444,90.68684234619141L110.86625,132.37400463867186L111.42618055555556,163.56228186035156L111.9861111111111,85.2043526916504L112.54604166666667,166.01536962890626L113.10597222222222,176.5780693359375L113.66590277777779,149.69416333007814L114.22583333333333,118.05586706542968L114.78576388888888,152.93751763916015L115.34569444444445,138.6728128051758L115.905625,85.30281866455078L116.46555555555555,151.91381506347656L117.0254861111111,131.19021990966797L117.58541666666667,94.76634448242187L118.14534722222223,96.65232247924804L118.70527777777777,96.15569833374023L119.26520833333333,96.7632823791504L119.82513888888889,124.97899346923828L120.38506944444445,93.86119107055664L120.945,95.84178909301758L121.50493055555556,87.23320330810546L122.06486111111111,160.22536083984374L122.62479166666667,111.7518193359375L123.18472222222222,106.40011889648437L123.74465277777777,131.41409509277344L124.30458333333334,97.22059899902344L124.8645138888889,118.92098913574219L125.42444444444445,158.0806834716797L125.984375,122.2061519165039L126.54430555555555,138.43978729248047L127.10423611111112,153.8256181640625L127.66416666666667,132.50792138671875L128.2240972222222,103.4938737487793L128.78402777777777,120.51484259033204L129.34395833333332,87.53318719482421L129.90388888888887,87.22274578857423L130.46381944444445,85.34435165405273L131.02375,97.2158293762207L131.58368055555556,121.8090146484375L132.1436111111111,89.39166018676758L132.70354166666667,101.22547247314454L133.26347222222222,95.0651724243164L133.82340277777777,94.13756451416016L134.38333333333333,121.15936285400392L134.94326388888888,95.56101873779296L135.50319444444446,143.07942572021483L136.063125,103.13974951171875L136.62305555555557,87.43011364746094L137.1829861111111,95.56938043212891L137.74291666666664,103.15903326416016L138.30284722222223,148.32916534423828L138.86277777777778,103.28135275268555L139.42270833333333,103.34478387451172L139.98263888888889,140.1212548828125L140.54256944444447,133.13737115478517L141.10250000000002,111.91109124755859L141.66243055555555,95.80416687011719L142.2223611111111,103.26559085083008L142.78229166666665,143.82880206298827L143.34222222222223,121.1538099975586L143.9021527777778,121.13601708984376L144.46208333333334,100.59387826538087L145.0220138888889,117.19300286865234L145.58194444444442,161.02085614013671L146.141875,153.4395866088867L146.70180555555555,162.91181982421875L147.2617361111111,85.16121002197265L147.82166666666666,174.72188122558595L148.38159722222224,116.01082781982421L148.9415277777778,97.43476208496094L149.50145833333335,134.31718029785156L150.06138888888887,119.41835870361328L150.62131944444442,94.16473461914062L151.18125,114.32258660888672L151.74118055555556,97.07418292236328L152.3011111111111,87.45634927368164L152.86104166666667,163.5797290649414L153.42097222222222,84.7994208984375L153.9809027777778,103.28042367553711L154.54083333333332,141.02028826904296L155.10076388888888,128.4321139526367L155.66069444444443,100.94719766235352L156.220625,96.75740542602539L156.78055555555557,93.94213961791992L157.34048611111112,96.44941635131836L157.90041666666667,93.01408877563476L158.46034722222223,141.4918705444336L159.02027777777778,112.26286578369141L159.58020833333333,169.87169879150392L160.14013888888888,84.55841180419922L160.70006944444444,142.85945050048826L161.26,142.0549237060547L161.81993055555557,93.531708984375L162.37986111111113,163.64204205322267L162.93979166666665,128.24480767822266L163.4997222222222,120.58862860107422L164.05965277777779,139.8254518432617L164.61958333333334,127.16581420898439L165.1795138888889,103.94961309814452L165.73944444444444,157.68100744628907L166.299375,133.66859802246094L166.85930555555558,112.30311859130859L167.4192361111111,97.0214469909668L167.97916666666666,143.4106201171875L168.5390972222222,118.67626373291016L169.09902777777776,85.21202838134765L169.65895833333335,83.7165652770996L170.2188888888889,87.412072265625L170.77881944444445,85.51679809570314L171.33875,73.38816046142578L171.89868055555556,106.22893643188476L172.4586111111111,72.8556480102539L173.01854166666666,100.10689059448242L173.57847222222222,96.67887139892578L174.13840277777777,92.44312225341797L174.69833333333335,94.48313800048828L175.2582638888889,106.43891326904297L175.81819444444446,97.30390805053712L176.37812499999998,96.54918411254883L176.93805555555554,98.02791302490235L177.49798611111112,72.83064395141602L178.05791666666667,74.18556253051759L178.61784722222222,72.64635717773437L179.17777777777778,85.6153937072754L179.73770833333333,91.19281668090821L180.29763888888888,85.72157858276368L180.85756944444444,61.68489701843262L181.4175,51.96847856140137L181.97743055555554,84.56794564819336L182.53736111111112,70.73516445922851L183.09729166666668,38.986844123840314L183.65722222222223,28.455614879608163L184.21715277777778,28.422982395172113L184.7770833333333,28.218189079284656L185.3370138888889,28.961722904205317L185.89694444444444,28.732578449249274L186.456875,29.137868774414073L187.01680555555555,17.804628536224357L187.5767361111111,28.782787776947004L188.13666666666668,17.909902860403065L188.69659722222224,28.203440654754644L189.25652777777776,41.209616638183576L189.81645833333332,28.614412124633787L190.3763888888889,29.008148403167723L190.93631944444445,28.56927558517458L191.49625,39.40639942932128L192.05618055555556,28.74498595046998L192.6161111111111,27.877632339477543L193.1760416666667,150.268505859375L193.73597222222222,28.500143737792968L194.29590277777777,28.323066764831538L194.85583333333332,28.991592464447024L195.41576388888888,28.891372318267827L195.97569444444446,18.039334477543832L196.535625,28.3350414619446L197.09555555555556,39.029980041503904L197.65548611111112,49.83675155639649L198.21541666666667,28.656659477233887L198.77534722222222,38.78009069824219L199.33527777777778,38.48849551391601L199.89520833333333,27.907726741790754L200.45513888888888,39.939965194702154L201.01506944444446,29.064020645141596L201.57500000000002,27.85855047225951L202.13493055555554,40.140779548645014L202.6948611111111,48.18889279174803L203.25479166666665,28.438191982269274L203.81472222222223,28.143333549499516L204.37465277777778,28.68803068542482L204.93458333333334,17.782125919282436L205.4945138888889,37.98647785949706L206.05444444444444,28.51797108078003L206.614375,28.62970813751221L207.17430555555555,28.97625661468504L207.7342361111111,28.607329261779796L208.29416666666665,28.764541133880613L208.85409722222224,28.6688779220581L209.4140277777778,28.566651077270507L209.97395833333334,48.1472544708252L210.5338888888889,28.901038501739492L211.09381944444442,38.92425565338135L211.65375,28.52839484024048L212.21368055555556,28.664052257537833L212.7736111111111,28.460441894531243L213.33354166666666,29.35653950500489L213.89347222222221,29.02564354705811L214.4534027777778,28.746860984802254L215.01333333333335,29.118175849914564L215.57326388888887,39.368604354858405L216.13319444444443,38.56136190032959L216.693125,18.013414233684557L217.25305555555556,29.091398712158195L217.81298611111112,29.095868545532227L218.37291666666667,28.95448406982422L218.93284722222222,38.133820312500006L219.49277777777777,28.564875297546394L220.05270833333333,18.165836226940144L220.61263888888888,38.688563095092775L221.17256944444443,28.916005691528312L221.7325,18.21218044853211L222.29243055555557,28.23095443725586L222.85236111111112,28.51159447860718L223.41229166666668,17.753441817551845L223.9722222222222,17.74702800017596L224.53215277777778,28.809446754455564L225.09208333333333,28.50630765151979L225.6520138888889,28.958687198638927L226.21194444444444,28.915384506225593L226.771875,28.712959121704102L227.33180555555558,39.99430000305176L227.89173611111113,29.038444015502932L228.45166666666665,28.840934772491465L229.0115972222222,29.170241981506365L229.57152777777776,28.172205837249777" style="fill: none;" fill="none"></path></g></g></g></g></g></g><g transform="translate(78, 177)" clip-path="url(#clip_1)"><clipPath id="clip_1"><rect width="251" height="23"></rect></clipPath><g><g><line x1="0" y1="0" x2="0" y2="5" style="visibility: inherit;" fill="rgb(0, 0, 0)" stroke="rgb(204, 204, 204)" stroke-width="1px"></line><line x1="27.996527777777775" y1="0" x2="27.996527777777775" y2="5" style="visibility: inherit;" fill="rgb(0, 0, 0)" stroke="rgb(204, 204, 204)" stroke-width="1px"></line><line x1="55.99305555555555" y1="0" x2="55.99305555555555" y2="5" style="visibility: inherit;" fill="rgb(0, 0, 0)" stroke="rgb(204, 204, 204)" stroke-width="1px"></line><line x1="83.98958333333333" y1="0" x2="83.98958333333333" y2="5" style="visibility: inherit;" fill="rgb(0, 0, 0)" stroke="rgb(204, 204, 204)" stroke-width="1px"></line><line x1="111.9861111111111" y1="0" x2="111.9861111111111" y2="5" style="visibility: inherit;" fill="rgb(0, 0, 0)" stroke="rgb(204, 204, 204)" stroke-width="1px"></line><line x1="139.98263888888889" y1="0" x2="139.98263888888889" y2="5" style="visibility: inherit;" fill="rgb(0, 0, 0)" stroke="rgb(204, 204, 204)" stroke-width="1px"></line><line x1="167.97916666666666" y1="0" x2="167.97916666666666" y2="5" style="visibility: inherit;" fill="rgb(0, 0, 0)" stroke="rgb(204, 204, 204)" stroke-width="1px"></line><line x1="195.97569444444446" y1="0" x2="195.97569444444446" y2="5" style="visibility: inherit;" fill="rgb(0, 0, 0)" stroke="rgb(204, 204, 204)" stroke-width="1px"></line><line x1="223.9722222222222" y1="0" x2="223.9722222222222" y2="5" style="visibility: inherit;" fill="rgb(0, 0, 0)" stroke="rgb(204, 204, 204)" stroke-width="1px"></line><line x1="251.96875" y1="0" x2="251.96875" y2="5" style="visibility: inherit;" fill="rgb(0, 0, 0)" stroke="rgb(204, 204, 204)" stroke-width="1px"></line></g><g transform="translate(0, 8)"><text x="0" y="0" dx="0em" dy="0.95em" style="text-anchor: middle; visibility: hidden; font-family: &quot;Helvetica Neue&quot;, sans-serif; font-size: 12px; font-weight: 200;" fill="rgb(50, 49, 63)" stroke="none" stroke-width="1px">-50</text><text x="27.996527777777775" y="0" dx="0em" dy="0.95em" style="text-anchor: middle; visibility: inherit; font-family: &quot;Helvetica Neue&quot;, sans-serif; font-size: 12px; font-weight: 200;" fill="rgb(50, 49, 63)" stroke="none" stroke-width="1px">0</text><text x="55.99305555555555" y="0" dx="0em" dy="0.95em" style="text-anchor: middle; visibility: inherit; font-family: &quot;Helvetica Neue&quot;, sans-serif; font-size: 12px; font-weight: 200;" fill="rgb(50, 49, 63)" stroke="none" stroke-width="1px">50</text><text x="83.98958333333333" y="0" dx="0em" dy="0.95em" style="text-anchor: middle; visibility: inherit; font-family: &quot;Helvetica Neue&quot;, sans-serif; font-size: 12px; font-weight: 200;" fill="rgb(50, 49, 63)" stroke="none" stroke-width="1px">100</text><text x="111.9861111111111" y="0" dx="0em" dy="0.95em" style="text-anchor: middle; visibility: inherit; font-family: &quot;Helvetica Neue&quot;, sans-serif; font-size: 12px; font-weight: 200;" fill="rgb(50, 49, 63)" stroke="none" stroke-width="1px">150</text><text x="139.98263888888889" y="0" dx="0em" dy="0.95em" style="text-anchor: middle; visibility: inherit; font-family: &quot;Helvetica Neue&quot;, sans-serif; font-size: 12px; font-weight: 200;" fill="rgb(50, 49, 63)" stroke="none" stroke-width="1px">200</text><text x="167.97916666666666" y="0" dx="0em" dy="0.95em" style="text-anchor: middle; visibility: inherit; font-family: &quot;Helvetica Neue&quot;, sans-serif; font-size: 12px; font-weight: 200;" fill="rgb(50, 49, 63)" stroke="none" stroke-width="1px">250</text><text x="195.97569444444446" y="0" dx="0em" dy="0.95em" style="text-anchor: middle; visibility: inherit; font-family: &quot;Helvetica Neue&quot;, sans-serif; font-size: 12px; font-weight: 200;" fill="rgb(50, 49, 63)" stroke="none" stroke-width="1px">300</text><text x="223.9722222222222" y="0" dx="0em" dy="0.95em" style="text-anchor: middle; visibility: inherit; font-family: &quot;Helvetica Neue&quot;, sans-serif; font-size: 12px; font-weight: 200;" fill="rgb(50, 49, 63)" stroke="none" stroke-width="1px">350</text><text x="251.96875" y="0" dx="0em" dy="0.95em" style="text-anchor: middle; visibility: hidden; font-family: &quot;Helvetica Neue&quot;, sans-serif; font-size: 12px; font-weight: 200;" fill="rgb(50, 49, 63)" stroke="none" stroke-width="1px">400</text></g><line x1="0" y1="0" x2="251.96875" y2="0" fill="rgb(0, 0, 0)" stroke="rgb(204, 204, 204)" stroke-width="1px"></line></g></g></g></g></svg>