<svg viewBox="0 0 330 200" xmlns="http://www.w3.org/2000/svg"><g><g><g><g><g><line x1="78.03125" y1="177" x2="73.03125" y2="177" style="visibility: inherit;" fill="rgb(0, 0, 0)" stroke="rgb(204, 204, 204)" stroke-width="1px"></line><line x1="78.03125" y1="157.33333333333334" x2="73.03125" y2="157.33333333333334" style="visibility: inherit;" fill="rgb(0, 0, 0)" stroke="rgb(204, 204, 204)" stroke-width="1px"></line><line x1="78.03125" y1="137.66666666666669" x2="73.03125" y2="137.66666666666669" style="visibility: inherit;" fill="rgb(0, 0, 0)" stroke="rgb(204, 204, 204)" stroke-width="1px"></line><line x1="78.03125" y1="118" x2="73.03125" y2="118" style="visibility: inherit;" fill="rgb(0, 0, 0)" stroke="rgb(204, 204, 204)" stroke-width="1px"></line><line x1="78.03125" y1="98.33333333333334" x2="73.03125" y2="98.33333333333334" style="visibility: inherit;" fill="rgb(0, 0, 0)" stroke="rgb(204, 204, 204)" stroke-width="1px"></line><line x1="78.03125" y1="78.66666666666666" x2="73.03125" y2="78.66666666666666" style="visibility: inherit;" fill="rgb(0, 0, 0)" stroke="rgb(204, 204, 204)" stroke-width="1px"></line><line x1="78.03125" y1="59" x2="73.03125" y2="59" style="visibility: inherit;" fill="rgb(0, 0, 0)" stroke="rgb(204, 204, 204)" stroke-width="1px"></line><line x1="78.03125" y1="39.33333333333334" x2="73.03125" y2="39.33333333333334" style="visibility: inherit;" fill="rgb(0, 0, 0)" stroke="rgb(204, 204, 204)" stroke-width="1px"></line><line x1="78.03125" y1="19.666666666666686" x2="73.03125" y2="19.666666666666686" style="visibility: inherit;" fill="rgb(0, 0, 0)" stroke="rgb(204, 204, 204)" stroke-width="1px"></line><line x1="78.03125" y1="0" x2="73.03125" y2="0" style="visibility: inherit;" fill="rgb(0, 0, 0)" stroke="rgb(204, 204, 204)" stroke-width="1px"></line></g><g transform="translate(68.03125, 0)"><text x="0" y="177" dx="0em" dy="0.3em" style="text-anchor: end; visibility: hidden; font-family: &quot;Helvetica Neue&quot;, sans-serif; font-size: 12px; font-weight: 200;" fill="rgb(50, 49, 63)" stroke="none" stroke-width="1px">-1.6e+3</text><text x="0" y="157.33333333333334" dx="0em" dy="0.3em" style="text-anchor: end; visibility: inherit; font-family: &quot;Helvetica Neue&quot;, sans-serif; font-size: 12px; font-weight: 200;" fill="rgb(50, 49, 63)" stroke="none" stroke-width="1px">-1.4e+3</text><text x="0" y="137.66666666666669" dx="0em" dy="0.3em" style="text-anchor: end; visibility: hidden; font-family: &quot;Helvetica Neue&quot;, sans-serif; font-size: 12px; font-weight: 200;" fill="rgb(50, 49, 63)" stroke="none" stroke-width="1px">-1.2e+3</text><text x="0" y="118" dx="0em" dy="0.3em" style="text-anchor: end; visibility: inherit; font-family: &quot;Helvetica Neue&quot;, sans-serif; font-size: 12px; font-weight: 200;" fill="rgb(50, 49, 63)" stroke="none" stroke-width="1px">-1e+3</text><text x="0" y="98.33333333333334" dx="0em" dy="0.3em" style="text-anchor: end; visibility: hidden; font-family: &quot;Helvetica Neue&quot;, sans-serif; font-size: 12px; font-weight: 200;" fill="rgb(50, 49, 63)" stroke="none" stroke-width="1px">-800</text><text x="0" y="78.66666666666666" dx="0em" dy="0.3em" style="text-anchor: end; visibility: inherit; font-family: &quot;Helvetica Neue&quot;, sans-serif; font-size: 12px; font-weight: 200;" fill="rgb(50, 49, 63)" stroke="none" stroke-width="1px">-600</text><text x="0" y="59" dx="0em" dy="0.3em" style="text-anchor: end; visibility: hidden; font-family: &quot;Helvetica Neue&quot;, sans-serif; font-size: 12px; font-weight: 200;" fill="rgb(50, 49, 63)" stroke="none" stroke-width="1px">-400</text><text x="0" y="39.33333333333334" dx="0em" dy="0.3em" style="text-anchor: end; visibility: inherit; font-family: &quot;Helvetica Neue&quot;, sans-serif; font-size: 12px; font-weight: 200;" fill="rgb(50, 49, 63)" stroke="none" stroke-width="1px">-200</text><text x="0" y="19.666666666666686" dx="0em" dy="0.3em" style="text-anchor: end; visibility: hidden; font-family: &quot;Helvetica Neue&quot;, sans-serif; font-size: 12px; font-weight: 200;" fill="rgb(50, 49, 63)" stroke="none" stroke-width="1px">0</text><text x="0" y="0" dx="0em" dy="0.3em" style="text-anchor: end; visibility: hidden; font-family: &quot;Helvetica Neue&quot;, sans-serif; font-size: 12px; font-weight: 200;" fill="rgb(50, 49, 63)" stroke="none" stroke-width="1px">200</text></g><line x1="78.03125" y1="0" x2="78.03125" y2="177" fill="rgb(0, 0, 0)" stroke="rgb(204, 204, 204)" stroke-width="1px"></line></g></g><g transform="translate(78, 0)" clip-path="url(#clip_0)"><clipPath id="clip_0"><rect width="251" height="177"></rect></clipPath><g><g><g><line x1="0" y1="0" x2="0" y2="177" fill="rgb(0, 0, 0)" stroke="rgb(60, 60, 60)" stroke-width="1px" opacity="0.25"></line><line x1="25.196875000000002" y1="0" x2="25.196875000000002" y2="177" fill="rgb(0, 0, 0)" stroke="rgb(60, 60, 60)" stroke-width="1px" opacity="0.25"></line><line x1="50.393750000000004" y1="0" x2="50.393750000000004" y2="177" fill="rgb(0, 0, 0)" stroke="rgb(60, 60, 60)" stroke-width="1px" opacity="0.25"></line><line x1="75.590625" y1="0" x2="75.590625" y2="177" fill="rgb(0, 0, 0)" stroke="rgb(60, 60, 60)" stroke-width="1px" opacity="0.25"></line><line x1="100.78750000000001" y1="0" x2="100.78750000000001" y2="177" fill="rgb(0, 0, 0)" stroke="rgb(60, 60, 60)" stroke-width="1px" opacity="0.25"></line><line x1="125.984375" y1="0" x2="125.984375" y2="177" fill="rgb(0, 0, 0)" stroke="rgb(60, 60, 60)" stroke-width="1px" opacity="0.25"></line><line x1="151.18125" y1="0" x2="151.18125" y2="177" fill="rgb(0, 0, 0)" stroke="rgb(60, 60, 60)" stroke-width="1px" opacity="0.25"></line><line x1="176.37812499999998" y1="0" x2="176.37812499999998" y2="177" fill="rgb(0, 0, 0)" stroke="rgb(60, 60, 60)" stroke-width="1px" opacity="0.25"></line><line x1="201.57500000000002" y1="0" x2="201.57500000000002" y2="177" fill="rgb(0, 0, 0)" stroke="rgb(60, 60, 60)" stroke-width="1px" opacity="0.25"></line><line x1="226.771875" y1="0" x2="226.771875" y2="177" fill="rgb(0, 0, 0)" stroke="rgb(60, 60, 60)" stroke-width="1px" opacity="0.25"></line><line x1="251.96875" y1="0" x2="251.96875" y2="177" fill="rgb(0, 0, 0)" stroke="rgb(60, 60, 60)" stroke-width="1px" opacity="0.25"></line></g><g><line x1="0" y1="177" x2="251.96875" y2="177" fill="rgb(0, 0, 0)" stroke="rgb(60, 60, 60)" stroke-width="1px" opacity="0.25"></line><line x1="0" y1="157.33333333333334" x2="251.96875" y2="157.33333333333334" fill="rgb(0, 0, 0)" stroke="rgb(60, 60, 60)" stroke-width="1px" opacity="0.25"></line><line x1="0" y1="137.66666666666669" x2="251.96875" y2="137.66666666666669" fill="rgb(0, 0, 0)" stroke="rgb(60, 60, 60)" stroke-width="1px" opacity="0.25"></line><line x1="0" y1="118" x2="251.96875" y2="118" fill="rgb(0, 0, 0)" stroke="rgb(60, 60, 60)" stroke-width="1px" opacity="0.25"></line><line x1="0" y1="98.33333333333334" x2="251.96875" y2="98.33333333333334" fill="rgb(0, 0, 0)" stroke="rgb(60, 60, 60)" stroke-width="1px" opacity="0.25"></line><line x1="0" y1="78.66666666666666" x2="251.96875" y2="78.66666666666666" fill="rgb(0, 0, 0)" stroke="rgb(60, 60, 60)" stroke-width="1px" opacity="0.25"></line><line x1="0" y1="59" x2="251.96875" y2="59" fill="rgb(0, 0, 0)" stroke="rgb(60, 60, 60)" stroke-width="1px" opacity="0.25"></line><line x1="0" y1="39.33333333333334" x2="251.96875" y2="39.33333333333334" fill="rgb(0, 0, 0)" stroke="rgb(60, 60, 60)" stroke-width="1px" opacity="0.25"></line><line x1="0" y1="19.666666666666686" x2="251.96875" y2="19.666666666666686" fill="rgb(0, 0, 0)" stroke="rgb(60, 60, 60)" stroke-width="1px" opacity="0.25"></line><line x1="0" y1="0" x2="251.96875" y2="0" fill="rgb(0, 0, 0)" stroke="rgb(60, 60, 60)" stroke-width="1px" opacity="0.25"></line></g></g></g><g><g><line x1="0" y1="19.666666666666686" x2="251.96875" y2="19.666666666666686" fill="rgb(0, 0, 0)" stroke="rgb(153, 153, 153)" stroke-width="1.5px"></line></g></g><g><g><line x1="25.196875000000002" y1="0" x2="25.196875000000002" y2="177" fill="rgb(0, 0, 0)" stroke="rgb(153, 153, 153)" stroke-width="1.5px"></line></g></g><g><g><g><g><g><path stroke="rgb(255, 112, 67)" stroke-width="2px" d="M25.196875000000002,149.29091023763021L25.700812499999998,174.9340697224935L26.204749999999997,187.32930095646654L27.212625,187.7369151428632L27.7165625,168.82670735772692L28.2205,164.0329313355837L28.7244375,176.08022929717345L29.228375,168.89377234842522L29.7323125,156.03752505165656L30.23625,156.92378046976782L30.740187499999998,153.19130095709113L31.244125,149.08072396852594L31.7480625,146.5669438077324L32.252,150.0902468797254L32.7559375,145.87562572217135L33.259875,149.78148448138006L33.7638125,168.81761102500968L34.26775,161.72764499768698L34.771687500000006,162.76380603464514L35.275625000000005,156.35342969915177L35.7795625,143.88297734012653L36.2835,143.5430603309767L36.787437499999996,142.50978532271728L37.291374999999995,135.00191397614003L37.7953125,139.50212879985844L38.29925,147.69868841966593L38.8031875,149.3530256725362L39.307125,156.33027402902195L39.8110625,148.7105497771617L40.315,150.65772262132327L40.818937500000004,145.26163704958782L41.322875,147.40244025841258L41.8268125,131.21632204904353L42.33075,128.99131125758288L42.8346875,139.81146687917425L43.33862499999999,147.52625452420708L43.8425625,146.8844603944328L44.3465,133.90935622077305L44.8504375,130.58550614338526L45.354375,145.20019546207578L45.8583125,142.13279183631624L46.362249999999996,126.92798780085006L46.8661875,125.12581798944264L47.370125,132.50387637385958L47.8740625,134.3113044214337L48.378,144.70197894231154L48.8819375,141.3556296667441L49.385875,140.32347594456382L49.889812500000005,138.73567239940775L50.393750000000004,139.02864505748462L50.8976875,137.58420933266365L51.401624999999996,128.41585946188687L51.905562499999995,134.5509022331281L52.409499999999994,130.97513435745276L52.9134375,128.03895455652787L53.417375,131.26290992467264L53.9213125,145.92143882589932L54.42525,133.32548390100732L54.9291875,133.8863311120888L55.433125,131.16405818873756L55.9370625,141.64391587027396L56.441,130.8550227806278L56.9449375,139.80433398087672L57.448875,130.41571505323955L57.9528125,128.4245021113708L58.45675,132.02096518283813L58.960687500000006,133.83064795735913L59.464625,134.85708791178524L59.9685625,136.47781003873783L60.4725,136.54405459420624L60.976437499999996,127.92025534766958L61.480374999999995,122.77243889382312L61.9843125,129.79532295543447L62.48825,132.1612749907086L62.9921875,130.671687194946L63.496125,136.6431088338947L64.0000625,137.64151886478993L64.504,139.2279122140563L65.0079375,135.4264310849442L65.511875,132.95002808456024L66.01581250000001,130.40406844578823L66.51975,128.30087775367087L67.02368750000001,133.50208492043168L67.527625,131.01765557465484L68.0315625,130.34060066901168L68.5355,133.36987415466223L69.0394375,127.46210173889108L69.54337500000001,129.5411542725013L70.0473125,132.25182228355285L70.55125000000001,126.197657538426L71.05518749999999,127.56763415521708L71.559125,132.07405681148964L72.0630625,128.41995459470627L72.567,128.9065580432821L73.0709375,125.57930608247966L73.57487499999999,129.04489142943572L74.0788125,133.15059590909374L74.58274999999999,129.69822668608126L75.0866875,134.3900018482373L75.590625,135.83255831922884L76.0945625,132.11521150520917L76.5985,126.34508430058645L77.1024375,125.62016768647166L77.606375,117.90654885407051L78.1103125,125.77384101491626L78.61425,130.1421032743143L79.1181875,124.20974113125526L79.622125,126.64740400492502L80.1260625,130.58519769266857L80.63,129.72440832914282L81.1339375,124.18456341382685L81.63787500000001,128.87067709452006L82.1418125,130.3431442124412L82.64575,127.15473141678763L83.1496875,126.74666388262467L83.653625,127.14049548126752L84.15756250000001,134.76260246454177L84.6615,133.82774995528757L85.16543750000001,135.6250811255163L85.669375,133.98102930682018L86.17331250000001,130.57726431260772L86.67724999999999,134.44874701529903L87.1811875,131.19315494746067L87.685125,131.36097646457014L88.18906249999999,128.86771958642439L88.693,129.58322354872962L89.19693749999999,129.2314529280659L89.700875,132.3981693642614L90.2048125,129.5147867097027L90.70875,129.34718639756642L91.2126875,134.69451374283673L91.716625,132.0535700621083L92.2205625,128.7093701459889L92.72449999999999,129.06883758238502L93.2284375,123.98439459044664L93.732375,122.7396291045284L94.2363125,125.52881343276911L94.74025,127.72619390276043L95.2441875,131.1326834640521L95.748125,126.55577418162136L96.25206250000001,124.09984398488427L96.756,122.82690411228475L97.2599375,121.79740971997501L97.763875,125.21817857938083L98.2678125,126.22805688721184L98.77175,123.78911237125942L99.2756875,121.96714108812023L99.77962500000001,123.60519065873149L100.2835625,121.45348215240035L100.78750000000001,122.11946803492978L101.2914375,115.09469123762455L101.795375,116.15393685357733L102.29931250000001,121.03837008740683L102.80324999999999,121.93286743004825L103.3071875,120.40152172756021L103.81112499999999,119.55659634545539L104.3150625,121.80632344854926L104.81899999999999,123.88165132824415L105.3229375,120.6310053233137L105.826875,124.99216048565489L106.3308125,132.46469090402314L106.83475,131.30340047991388L107.33868749999999,130.5360019578702L107.842625,145.44468833292527L108.3465625,134.0691823845208L108.8505,132.02393032914995L109.3544375,146.05712813564102L109.858375,137.02750393216587L110.3623125,133.89361710539328L110.86625,131.94470135047555L111.3701875,129.69570663385304L111.874125,124.17708210205663L112.3780625,125.83752164079127L112.882,123.3036042930685L113.3859375,126.04398728287234L113.889875,123.1325172883432L114.39381250000001,122.1433637258705L114.89775,120.85866459782699L115.40168750000001,120.16770974502431L115.905625,122.89384972396772L116.4095625,122.23959621133376L116.9135,124.49578303604505L117.4174375,122.44372877344993L117.92137500000001,127.26237772630955L118.42531249999999,122.37757788090292L118.92925,117.40279546714854L119.43318749999999,117.4865814144037L119.937125,117.414625321624L120.4410625,121.83291614349523L120.945,121.09347445823254L121.4489375,121.51816768275202L121.95287499999999,119.47161630789341L122.4568125,118.4886881685251L122.96074999999999,116.52599773184423L123.4646875,121.5654508526482L123.968625,120.71553121308631L124.4725625,119.13555143455751L124.9765,118.28551278619022L125.4804375,121.77841729085478L125.984375,115.81529919449986L126.4883125,121.59301195485097L126.99225,122.40726599452515L127.4961875,141.95859934280884L128.000125,132.99154107541187L128.5040625,127.40545910976536L129.008,124.08813296911441L129.51193750000002,122.71152358029678L130.015875,120.61277747011817L130.5198125,122.30391151787819L131.02375,123.14966315421651L131.5276875,124.45564034044656L132.03162500000002,129.60238420426793L132.5355625,131.4771181853212L133.0395,128.29918863580207L133.5434375,124.6395888243849L134.04737500000002,123.09035860062052L134.5513125,118.81138931401816L135.05525,118.15543393020778L135.5591875,116.3771084212757L136.063125,118.93204955797376L136.56706250000002,118.28239835457592L137.071,120.09772783110492L137.5749375,120.98865037053793L138.078875,119.08985001236182L138.58281250000002,138.5883045386671L139.08675000000002,130.46347088237997L139.5906875,125.57070936048265L140.094625,123.41184976993543L140.5985625,121.35829422882324L141.10250000000002,115.47766143312728L141.60643750000003,117.77676092237635L142.11037499999998,118.10105065336072L142.61431249999998,118.46522548478985L143.11825,119.18709093866038L143.6221875,118.1292934629358L144.126125,118.13088397977971L144.63006249999998,119.38613325245116L145.134,120.86219606475193L145.6379375,119.32426999073918L146.141875,138.379508283506L146.64581249999998,130.01422128683535L147.14974999999998,126.16378732939287L147.6536875,124.76997153500551L148.157625,142.7061059678783L148.6615625,134.75512614583113L149.16549999999998,123.40317419824088L149.6694375,123.54912717519451L150.173375,122.43645132139277L150.6773125,140.7662072186169L151.18125,132.19958297374828L151.68518749999998,146.5343762490927L152.189125,135.7574685228931L152.6930625,128.55225621953014L153.197,124.29771489708266L153.7009375,123.25104576767667L154.204875,141.00294630826227L154.7088125,132.47388428072557L155.21275,127.09799556680775L155.7166875,119.89368824991539L156.220625,114.26354420808724L156.7245625,115.45085886534713L157.2285,111.44075331562756L157.7324375,109.40251330936351L158.236375,112.39520285052696L158.7403125,115.65425712698284L159.24425,112.04127660691887L159.7481875,113.87750591369561L160.252125,114.80329261071736L160.7560625,117.5470846159096L161.26,117.73251444142076L161.7639375,117.75928633412327L162.267875,115.7420029121276L162.7718125,117.80386898360467L163.27575000000002,113.66163193703781L163.7796875,112.38025845909769L164.283625,134.06404570045862L164.7875625,122.94793462242362L165.2915,122.8869281725427L165.79543750000002,116.12167871342146L166.299375,118.24465639797475L166.8033125,118.32862888110256L167.30725,111.63545113237247L167.81118750000002,115.71337891510055L168.31512500000002,117.991211593852L168.8190625,114.16454519361591L169.323,111.08570302762786L169.8269375,104.87255857601683L170.33087500000002,109.94277562412573L170.8348125,104.5972597755171L171.33875,109.14355760684673L171.8426875,113.9237085387174L172.34662500000002,105.17050840773567L172.85056250000002,111.39205732328723L173.35449999999997,110.48145908472755L173.85843749999998,132.9486532014876L174.362375,122.83711770214256L174.8663125,119.92465099237928L175.37025,112.04425828748487L175.87418749999998,105.1151925457331L176.37812499999998,107.57066976734873L176.8820625,101.17618270350818L177.386,105.1949721953471L177.8899375,100.2673118491093L178.39387499999998,109.35862319344996L178.8978125,107.84980152023664L179.40175,103.68826356188157L179.9056875,110.19759859936852L180.409625,108.79030675890496L180.91356249999998,107.50352048112423L181.4175,106.5763072349636L181.9214375,102.02683211116045L182.425375,104.5744636872692L182.92931249999998,110.93803213488756L183.43325,104.96396413770339L183.9371875,110.35374359492673L184.441125,103.67090826633103L184.9450625,100.4368280408533L185.44899999999998,108.89665916175156L185.9529375,108.11400139711604L186.456875,107.31486763514462L186.9608125,106.14056971031854L187.46475,112.41027541994113L187.9686875,116.8752445976678L188.472625,119.72913748125693L188.9765625,122.060291408025L189.4805,116.2652930495676L189.9844375,112.39415886196713L190.488375,117.57442451639903L190.9923125,115.43628451127171L191.49625,111.9870830846927L192.0001875,105.50095993382344L192.50412500000002,100.81512914226022L193.0080625,109.37684335449676L193.512,112.20254160026317L194.0159375,115.47510381757976L194.519875,112.04695918182391L195.02381250000002,107.7284465458782L195.52775,101.99973500109463L196.0316875,98.87619284798751L196.535625,92.45208387285501L197.03956250000002,88.4242843813302L197.5435,92.5012081613502L198.0474375,99.21012443294293L198.551375,106.84733003085951L199.0553125,102.64255695406257L199.55925000000002,99.48798546638285L200.0631875,78.00452976453023L200.567125,79.74549605696032L201.0710625,66.27591258372048L201.57500000000002,72.15781272764112L202.07893750000002,61.135891158313186L202.582875,44.585715915718055L203.0868125,49.4640960533371L203.59075,47.440579763349916L204.09468750000002,46.42969421217663L204.59862500000003,45.891218382774724L205.10256249999998,45.82520997253593L205.60649999999998,45.66951109501244L206.1104375,35.86907376567038L206.614375,35.16953235347776L207.1183125,39.013467377581435L207.62224999999998,31.996598100041297L208.1261875,32.80552286555863L208.630125,33.18921699895756L209.1340625,33.430884895012554L209.63799999999998,48.282992037267945L210.14193749999998,56.50549566181388L210.645875,51.8336485119972L211.1498125,53.830822570739954L211.65375,45.85294950557875L212.15768749999998,49.7652668346949L212.661625,43.324529088854064L213.1655625,53.06324933400906L213.6695,45.34660770180517L214.1734375,40.362460073963945L214.67737499999998,37.816865011256624L215.1813125,36.134202045084066L215.68525,35.00412792667609L216.1891875,34.55532784039693L216.693125,42.95012012546209L217.1970625,47.99755024503639L217.701,42.08495875623407L218.2049375,43.48959392642925L218.708875,44.384343330955204L219.2128125,35.233751460609255L219.71675,39.268148520408545L220.2206875,41.63520277191307L220.724625,42.93239381890956L221.2285625,43.76664993473767L221.7325,44.3921992910835L222.2364375,40.04020972154137L222.740375,37.17212734863119L223.2443125,30.93566904579575L223.74825,27.22986917548363L224.2521875,29.697146430013476L224.756125,35.82005667718127L225.2600625,39.64884227453794L225.764,37.40145833916938L226.26793750000002,40.525067610109716L226.771875,42.40605360724419L227.2758125,38.94268440026772L227.77975,41.59393264129997L228.2836875,43.24231317771617L228.78762500000002,39.33842211683478L229.2915625,36.98998005843097L229.7955,35.52568754881182L230.2994375,29.80835082846619L230.80337500000002,31.18922961329062L231.30731250000002,27.281959421721922L231.81125,44.72159252315038L232.3151875,44.675831134414295L232.819125,44.76956185203528L233.32306250000002,40.21268916810595L233.827,37.242292476286764L234.3309375,40.41374617262099L234.834875,42.25046425630697L235.33881250000002,51.41502299958498L235.84275000000002,48.741353775743846L236.34668749999997,47.49468789614292L236.85062499999998,41.788508518121944L237.3545625,38.318825976758575L237.8585,47.39196683035851L238.3624375,36.80857211112914L238.86637499999998,30.46559679857853L239.37031249999998,31.58900881563801L239.87425,27.291549462687044L240.3781875,24.733382371551443L240.882125,27.98440285636184L241.38606249999998,34.60560300735551L241.89,38.50685317811124" style="fill: none;" fill="none"></path></g></g></g></g><g opacity="0.2"><g><g><g><path stroke="rgb(255, 112, 67)" stroke-width="2px" d="M25.196875000000002,149.29091023763021L25.700812499999998,190.31996541341147L27.212625,192.62687357584636L27.7165625,142.66708231608072L28.2205,157.17775492350262L28.7244375,193.64530537923176L29.228375,158.29514424641928L29.7323125,136.94749613444012L30.23625,158.24512532552083L30.740187499999998,147.6128936767578L31.244125,142.9282802327474L31.7480625,142.8011983235677L32.252,155.37105997721355L32.7559375,139.55666646321615L33.259875,155.63861979166666L33.7638125,197.36696756998697L34.26775,151.09377604166667L34.771687500000006,164.31795288085937L35.275625000000005,146.7382167561849L35.7795625,125.17770914713542L36.2835,143.03319152832032L36.787437499999996,140.95988505045574L37.291374999999995,123.74016031901041L37.7953125,146.25243184407552L38.29925,159.9935068766276L38.8031875,151.83452901204427L39.307125,166.79614013671875L39.8110625,137.28096761067707L40.315,153.578481241862L40.818937500000004,137.167509765625L41.322875,150.61364481608072L41.8268125,106.93714589436848L42.33075,125.65379516601563L42.8346875,156.0417000325521L43.33862499999999,159.09843587239584L43.8425625,145.92176920572916L44.3465,114.44670003255209L44.8504375,125.59973103841145L45.354375,167.12222941080728L45.8583125,137.53168640136718L46.362249999999996,104.1207817586263L46.8661875,122.42256327311198L47.370125,143.5709639485677L47.8740625,137.022446492513L48.378,160.28799072265625L48.8819375,136.33610575358074L49.385875,138.77524536132813L49.889812500000005,136.35396708170572L50.393750000000004,139.46810404459637L50.8976875,135.4175557454427L51.401624999999996,114.66333465576172L51.905562499999995,143.75346638997397L52.409499999999994,125.61148254394531L52.9134375,123.63468485514323L53.417375,136.09884297688802L53.9213125,167.90923217773437L54.42525,114.43155151367188L54.9291875,134.72760192871095L55.433125,127.08064880371094L55.9370625,157.36370239257812L56.441,114.67168314615884L56.9449375,153.22830078125L57.448875,116.33278666178384L57.9528125,125.4376826985677L58.45675,137.41565979003906L58.960687500000006,136.54517211914063L59.464625,136.39674784342446L59.9685625,138.90889322916667L60.4725,136.64342142740884L60.976437499999996,114.98455647786459L61.480374999999995,115.05071421305338L61.9843125,140.32964904785155L62.48825,135.7102030436198L62.9921875,128.4373055013021L63.496125,145.60024129231772L64.0000625,139.1391339111328L64.504,141.6075022379557L65.0079375,129.72420939127605L65.511875,129.23542358398436L66.01581250000001,126.58512898763021L66.51975,125.14609171549479L67.02368750000001,141.30389567057293L67.527625,127.29101155598958L68.0315625,129.32501831054688L68.5355,137.91378438313802L69.0394375,118.60044311523438L69.54337500000001,132.65973307291665L70.0473125,136.3178243001302L70.55125000000001,117.11641042073568L71.05518749999999,129.62259908040366L71.559125,138.83369079589843L72.0630625,122.93880126953125L72.567,129.63646321614584L73.0709375,120.58842814127604L73.57487499999999,134.24326944986979L74.0788125,139.30915262858073L74.58274999999999,124.51967285156249L75.0866875,141.42766459147134L75.590625,137.99639302571615L76.0945625,126.53919128417968L76.5985,117.68989349365235L77.1024375,124.53279276529949L77.606375,106.33612060546875L78.1103125,137.5747792561849L78.61425,136.69449666341146L79.1181875,115.31119791666666L79.622125,130.3038983154297L80.1260625,136.49188822428385L80.63,128.43322428385417L81.1339375,115.87479604085286L81.63787500000001,135.8998476155599L82.1418125,132.55184488932292L82.64575,122.3721122233073L83.1496875,126.13456258138021L83.653625,127.73124287923177L84.15756250000001,146.19576293945312L84.6615,132.42547119140625L85.16543750000001,138.32107788085938L85.669375,131.51495157877605L86.17331250000001,125.47161682128906L86.67724999999999,140.25597106933594L87.1811875,126.30976684570312L87.685125,131.61270874023438L88.18906249999999,125.12783426920572L88.693,130.6564794921875L89.19693749999999,128.7037969970703L89.700875,137.1482440185547L90.2048125,125.18971272786459L90.70875,129.09578592936197L91.2126875,142.7155047607422L91.716625,128.09215454101562L92.2205625,123.6930702718099L92.72449999999999,129.60803873697915L93.2284375,116.35773010253905L93.732375,120.87248087565104L94.2363125,129.7125899251302L94.74025,131.0222646077474L95.2441875,136.2424178059896L95.748125,119.69041025797526L96.25206250000001,120.41594868977865L96.756,120.91749430338541L97.2599375,120.25316813151042L97.763875,130.34933186848957L98.2678125,127.74287434895834L98.77175,120.13069559733073L99.2756875,119.23418416341147L99.77962500000001,126.06226501464843L100.2835625,118.22591939290365L100.78750000000001,123.11844685872396L101.2914375,104.55752604166666L101.795375,117.7428052775065L102.29931250000001,128.36501993815102L102.80324999999999,123.27461344401041L103.3071875,118.10450317382814L103.81112499999999,118.28920827229817L104.3150625,125.1809141031901L104.81899999999999,126.99464314778646L105.3229375,115.75503631591798L105.826875,131.53389322916667L106.3308125,143.67348653157552L106.83475,129.56146484375L107.33868749999999,129.3849041748047L107.842625,167.8077178955078L108.3465625,117.00592346191405L108.8505,128.95605224609375L109.3544375,167.1069248453776L109.858375,123.48306762695313L110.3623125,129.19278686523438L110.86625,129.02132771809897L111.3701875,126.32221455891928L111.874125,115.89914530436198L112.3780625,128.32818094889322L112.882,119.50272827148437L113.3859375,130.15456176757812L113.889875,118.76531229654948L114.39381250000001,120.65963338216146L114.89775,118.93161590576172L115.40168750000001,119.13127746582032L115.905625,126.98305969238281L116.4095625,121.2582159423828L116.9135,127.88006327311199L117.4174375,119.36564737955729L117.92137500000001,134.49035115559894L118.42531249999999,115.05037811279297L118.92925,109.94062184651693L119.43318749999999,117.61226033528646L119.937125,117.30669118245441L120.4410625,128.46035237630207L120.945,119.98431193033855L121.4489375,122.15520751953125L121.95287499999999,116.40178924560547L122.4568125,117.01429595947266L122.96074999999999,113.58196207682292L123.4646875,129.12463053385417L123.968625,119.4406517537435L124.4725625,116.76558176676431L124.9765,117.01045481363931L125.4804375,127.01777404785156L125.984375,106.87062204996745L126.4883125,130.2595810953776L126.99225,123.62864705403646L127.4961875,171.28559936523436L128.000125,119.54095367431641L128.5040625,119.02633616129557L129.008,119.11214375813802L129.51193750000002,120.6466094970703L130.015875,117.46465830485025L130.5198125,124.84061258951823L131.02375,124.41829060872396L131.5276875,126.41460611979167L132.03162500000002,137.3225L132.5355625,134.28921915690103L133.0395,123.53229431152343L133.5434375,119.15018910725911L134.04737500000002,120.76651326497395L134.5513125,112.39293538411458L135.05525,117.1715008544922L135.5591875,113.7096201578776L136.063125,122.76446126302083L136.56706250000002,117.30792154947916L137.071,122.82072204589844L137.5749375,122.32503417968749L138.078875,116.24164947509766L138.58281250000002,167.835986328125L139.08675000000002,118.27622039794922L139.5906875,118.23156707763673L140.094625,120.17356038411458L140.5985625,118.27796091715496L141.10250000000002,106.65671223958333L141.60643750000003,121.22541015625L142.11037499999998,118.58748524983724L142.61431249999998,119.01148773193358L143.11825,120.26988911946614L143.6221875,116.54259724934897L144.126125,118.13326975504557L144.63006249999998,121.26900716145835L145.134,123.07629028320312L145.6379375,117.01738087972005L146.141875,166.96236572265624L146.64581249999998,117.46629079182942L147.14974999999998,120.38813639322916L147.6536875,122.67924784342448L148.157625,169.6103076171875L148.6615625,122.82865641276041L149.16549999999998,106.37524627685548L149.6694375,123.768056640625L150.173375,120.76743754069011L150.6773125,168.26084106445313L151.18125,119.3496466064453L151.68518749999998,168.03656616210938L152.189125,119.59210693359375L152.6930625,117.74443776448567L153.197,117.91590291341146L153.7009375,121.68104207356771L154.204875,167.63079711914062L154.7088125,119.68029123942057L155.21275,119.03416249593099L155.7166875,109.08722727457683L156.220625,105.81832814534506L156.7245625,117.23183085123698L157.2285,105.42559499104819L157.7324375,106.34515329996745L158.236375,116.88423716227214L158.7403125,120.54283854166667L159.24425,106.62180582682292L159.7481875,116.63184987386069L160.252125,116.19197265624999L160.7560625,121.66277262369792L161.26,118.01065917968751L161.7639375,117.79944417317708L162.267875,112.71607777913411L162.7718125,120.89666809082033L163.27575000000002,107.4482763671875L163.7796875,110.4581982421875L164.283625,166.5897265625L164.7875625,106.2737680053711L165.2915,122.79541849772136L165.79543750000002,105.97380452473959L166.299375,121.42912292480469L166.8033125,118.45458760579427L167.30725,101.59568450927735L167.81118750000002,121.83027058919271L168.31512500000002,121.40796061197918L168.8190625,108.42454559326171L169.323,106.46743977864583L169.8269375,95.55284189860026L170.33087500000002,117.54810119628907L170.8348125,96.57898600260417L171.33875,115.96300435384114L171.8426875,121.09393493652342L172.34662500000002,92.04070821126302L172.85056250000002,120.72438069661459L173.35449999999997,109.11556172688802L173.85843749999998,166.6494443766276L174.362375,107.669814453125L174.8663125,115.55595092773437L175.37025,100.22366923014323L175.87418749999998,94.72159393310547L176.37812499999998,111.25388559977213L176.8820625,91.5844521077474L177.386,111.22315643310546L177.8899375,92.87582132975261L178.39387499999998,122.99559020996094L178.8978125,105.58656901041667L179.40175,97.44595662434897L179.9056875,119.96160115559896L180.409625,106.67936899820964L180.91356249999998,105.57334106445313L181.4175,105.18548736572265L181.9214375,95.20261942545574L182.425375,108.3959110514323L182.92931249999998,120.4833848063151L183.43325,96.00286214192708L183.9371875,118.43841278076172L184.441125,93.6466552734375L184.9450625,95.58570770263673L185.44899999999998,121.58640584309896L185.9529375,106.94001475016276L186.456875,106.1161669921875L186.9608125,104.37912282307943L187.46475,121.814833984375L187.9686875,123.5726983642578L188.472625,124.00997680664062L188.9765625,125.55702229817709L189.4805,107.57279551188151L189.9844375,106.58745758056641L190.488375,125.34482299804688L190.9923125,112.22907450358073L191.49625,106.81328094482421L192.0001875,95.77177520751952L192.50412500000002,93.78638295491537L193.0080625,122.21941467285157L193.512,116.44108896891277L194.0159375,120.38394714355469L194.519875,106.9047422281901L195.02381250000002,101.25067759195963L195.52775,93.40666768391927L196.0316875,94.19087961832682L196.535625,82.81592041015624L197.03956250000002,82.38258514404296L197.5435,98.6165938313802L198.0474375,109.27349884033204L198.551375,118.30313842773438L199.0553125,96.3353973388672L199.55925000000002,94.75612823486328L200.0631875,45.77934621175132L200.567125,82.35694549560547L201.0710625,46.07153737386068L201.57500000000002,80.98066294352213L202.07893750000002,44.60300880432129L202.582875,19.76045305182538L203.0868125,56.78166625976563L203.59075,44.40530532836914L204.09468750000002,44.91336588541665L204.59862500000003,45.08350463867188L205.10256249999998,45.72619735717774L205.60649999999998,45.4359627787272L206.1104375,21.16841777165729L206.614375,34.12022023518881L207.1183125,44.779369913736986L207.62224999999998,21.47129418373109L208.1261875,34.01891001383464L208.630125,33.76475819905599L209.1340625,33.79338673909504L209.63799999999998,70.56115275065103L210.14193749999998,68.8392510986328L210.645875,44.825877787272134L211.1498125,56.82658365885416L211.65375,33.886139907836935L212.15768749999998,55.63374282836915L212.661625,33.66342247009277L213.1655625,67.67132970174153L213.6695,33.771645253499344L214.1734375,32.88623863220215L214.67737499999998,33.99847241719564L215.1813125,33.61020759582519L215.68525,33.309016749064114L216.1891875,33.88212771097818L216.693125,55.5423085530599L217.1970625,55.56869542439779L217.701,33.21607152303059L218.2049375,45.596546681722L218.708875,45.726467437744134L219.2128125,21.507863655090347L219.71675,45.31974411010742L220.2206875,45.185784149169905L220.724625,44.87818038940429L221.2285625,45.01803410847981L221.7325,45.3305233256022L222.2364375,33.51222536722818L222.740375,32.87000378926595L223.2443125,21.580981591542553L223.74825,21.671169370015463L224.2521875,33.398062311808275L224.756125,45.004422047932934L225.2600625,45.39202067057292L225.764,34.030382436116525L226.26793750000002,45.21048151652019L226.771875,45.227532602945956L227.2758125,33.747630589803066L227.77975,45.57080500284832L228.2836875,45.714883982340496L228.78762500000002,33.48258552551269L229.2915625,33.46731697082521L229.7955,33.32924878438314L230.2994375,21.232345747947704L230.80337500000002,33.26054779052734L231.30731250000002,21.421054134368916L231.81125,70.88104217529298L232.3151875,44.60718905131023L232.819125,44.91015792846679L233.32306250000002,33.377380142211905L233.827,32.78669743855795L234.3309375,45.1709267171224L234.834875,45.00554138183594L235.33881250000002,65.16186111450196L235.84275000000002,44.73084993998211L236.34668749999997,45.62468907674153L236.85062499999998,33.22923945109051L237.3545625,33.114302164713536L237.8585,61.00167811075846L238.3624375,20.933480032285075L238.86637499999998,20.951133829752592L239.37031249999998,33.2741268412272L239.87425,20.845360433260595L240.3781875,20.896131734848012L240.882125,32.86093358357746L241.38606249999998,44.53740323384605L241.89,44.358728434244796" style="fill: none;" fill="none"></path></g></g></g></g></g></g><g transform="translate(78, 177)" clip-path="url(#clip_1)"><clipPath id="clip_1"><rect width="251" height="23"></rect></clipPath><g><g><line x1="0" y1="0" x2="0" y2="5" style="visibility: inherit;" fill="rgb(0, 0, 0)" stroke="rgb(204, 204, 204)" stroke-width="1px"></line><line x1="25.196875000000002" y1="0" x2="25.196875000000002" y2="5" style="visibility: inherit;" fill="rgb(0, 0, 0)" stroke="rgb(204, 204, 204)" stroke-width="1px"></line><line x1="50.393750000000004" y1="0" x2="50.393750000000004" y2="5" style="visibility: inherit;" fill="rgb(0, 0, 0)" stroke="rgb(204, 204, 204)" stroke-width="1px"></line><line x1="75.590625" y1="0" x2="75.590625" y2="5" style="visibility: inherit;" fill="rgb(0, 0, 0)" stroke="rgb(204, 204, 204)" stroke-width="1px"></line><line x1="100.78750000000001" y1="0" x2="100.78750000000001" y2="5" style="visibility: inherit;" fill="rgb(0, 0, 0)" stroke="rgb(204, 204, 204)" stroke-width="1px"></line><line x1="125.984375" y1="0" x2="125.984375" y2="5" style="visibility: inherit;" fill="rgb(0, 0, 0)" stroke="rgb(204, 204, 204)" stroke-width="1px"></line><line x1="151.18125" y1="0" x2="151.18125" y2="5" style="visibility: inherit;" fill="rgb(0, 0, 0)" stroke="rgb(204, 204, 204)" stroke-width="1px"></line><line x1="176.37812499999998" y1="0" x2="176.37812499999998" y2="5" style="visibility: inherit;" fill="rgb(0, 0, 0)" stroke="rgb(204, 204, 204)" stroke-width="1px"></line><line x1="201.57500000000002" y1="0" x2="201.57500000000002" y2="5" style="visibility: inherit;" fill="rgb(0, 0, 0)" stroke="rgb(204, 204, 204)" stroke-width="1px"></line><line x1="226.771875" y1="0" x2="226.771875" y2="5" style="visibility: inherit;" fill="rgb(0, 0, 0)" stroke="rgb(204, 204, 204)" stroke-width="1px"></line><line x1="251.96875" y1="0" x2="251.96875" y2="5" style="visibility: inherit;" fill="rgb(0, 0, 0)" stroke="rgb(204, 204, 204)" stroke-width="1px"></line></g><g transform="translate(0, 8)"><text x="0" y="0" dx="0em" dy="0.95em" style="text-anchor: middle; visibility: hidden; font-family: &quot;Helvetica Neue&quot;, sans-serif; font-size: 12px; font-weight: 200;" fill="rgb(50, 49, 63)" stroke="none" stroke-width="1px">-50</text><text x="25.196875000000002" y="0" dx="0em" dy="0.95em" style="text-anchor: middle; visibility: inherit; font-family: &quot;Helvetica Neue&quot;, sans-serif; font-size: 12px; font-weight: 200;" fill="rgb(50, 49, 63)" stroke="none" stroke-width="1px">0</text><text x="50.393750000000004" y="0" dx="0em" dy="0.95em" style="text-anchor: middle; visibility: inherit; font-family: &quot;Helvetica Neue&quot;, sans-serif; font-size: 12px; font-weight: 200;" fill="rgb(50, 49, 63)" stroke="none" stroke-width="1px">50</text><text x="75.590625" y="0" dx="0em" dy="0.95em" style="text-anchor: middle; visibility: inherit; font-family: &quot;Helvetica Neue&quot;, sans-serif; font-size: 12px; font-weight: 200;" fill="rgb(50, 49, 63)" stroke="none" stroke-width="1px">100</text><text x="100.78750000000001" y="0" dx="0em" dy="0.95em" style="text-anchor: middle; visibility: inherit; font-family: &quot;Helvetica Neue&quot;, sans-serif; font-size: 12px; font-weight: 200;" fill="rgb(50, 49, 63)" stroke="none" stroke-width="1px">150</text><text x="125.984375" y="0" dx="0em" dy="0.95em" style="text-anchor: middle; visibility: inherit; font-family: &quot;Helvetica Neue&quot;, sans-serif; font-size: 12px; font-weight: 200;" fill="rgb(50, 49, 63)" stroke="none" stroke-width="1px">200</text><text x="151.18125" y="0" dx="0em" dy="0.95em" style="text-anchor: middle; visibility: inherit; font-family: &quot;Helvetica Neue&quot;, sans-serif; font-size: 12px; font-weight: 200;" fill="rgb(50, 49, 63)" stroke="none" stroke-width="1px">250</text><text x="176.37812499999998" y="0" dx="0em" dy="0.95em" style="text-anchor: middle; visibility: inherit; font-family: &quot;Helvetica Neue&quot;, sans-serif; font-size: 12px; font-weight: 200;" fill="rgb(50, 49, 63)" stroke="none" stroke-width="1px">300</text><text x="201.57500000000002" y="0" dx="0em" dy="0.95em" style="text-anchor: middle; visibility: inherit; font-family: &quot;Helvetica Neue&quot;, sans-serif; font-size: 12px; font-weight: 200;" fill="rgb(50, 49, 63)" stroke="none" stroke-width="1px">350</text><text x="226.771875" y="0" dx="0em" dy="0.95em" style="text-anchor: middle; visibility: inherit; font-family: &quot;Helvetica Neue&quot;, sans-serif; font-size: 12px; font-weight: 200;" fill="rgb(50, 49, 63)" stroke="none" stroke-width="1px">400</text><text x="251.96875" y="0" dx="0em" dy="0.95em" style="text-anchor: middle; visibility: hidden; font-family: &quot;Helvetica Neue&quot;, sans-serif; font-size: 12px; font-weight: 200;" fill="rgb(50, 49, 63)" stroke="none" stroke-width="1px">450</text></g><line x1="0" y1="0" x2="251.96875" y2="0" fill="rgb(0, 0, 0)" stroke="rgb(204, 204, 204)" stroke-width="1px"></line></g></g></g></g></svg>